<svg width="237" height="237" viewBox="0 0 237 237" fill="none" xmlns="http://www.w3.org/2000/svg">
<g filter="url(#filter0_d_401_48)">
<path d="M212 114.5C212 166.139 170.139 208 118.5 208C66.8614 208 25 166.139 25 114.5C25 62.8614 27.4523 21 79.0909 21C130.73 21 212 62.8614 212 114.5Z" fill="#4C40F7"/>
<path d="M212 114.5C212 166.139 170.139 208 118.5 208C66.8614 208 25 166.139 25 114.5C25 62.8614 27.4523 21 79.0909 21C130.73 21 212 62.8614 212 114.5Z" fill="url(#paint0_linear_401_48)"/>
</g>
<defs>
<filter id="filter0_d_401_48" x="0" y="0" width="237" height="237" filterUnits="userSpaceOnUse" color-interpolation-filters="sRGB">
<feFlood flood-opacity="0" result="BackgroundImageFix"/>
<feColorMatrix in="SourceAlpha" type="matrix" values="0 0 0 0 0 0 0 0 0 0 0 0 0 0 0 0 0 0 127 0" result="hardAlpha"/>
<feOffset dy="4"/>
<feGaussianBlur stdDeviation="12.5"/>
<feColorMatrix type="matrix" values="0 0 0 0 1 0 0 0 0 1 0 0 0 0 1 0 0 0 0.09 0"/>
<feBlend mode="normal" in2="BackgroundImageFix" result="effect1_dropShadow_401_48"/>
<feBlend mode="normal" in="SourceGraphic" in2="effect1_dropShadow_401_48" result="shape"/>
</filter>
<linearGradient id="paint0_linear_401_48" x1="118.5" y1="21" x2="118.5" y2="208" gradientUnits="userSpaceOnUse">
<stop stop-color="#9D67F8"/>
<stop offset="1" stop-color="white" stop-opacity="0"/>
</linearGradient>
</defs>
</svg>
